<svg class="qrCode" id="" version="1.1" xmlns="http://www.w3.org/2000/svg" viewBox="-5 -5 39 39"><path class="qrLight" fill="#1d2021" d="M-5,-5h39v39h-39Z"></path><g fill="#98971a" class="qrDark qrRounded qrModules"><rect x="14.1" y="7.099999904632568" width="0.800000011920929" height="0.800000011920929" rx="0.4000000059604645"></rect><rect x="16.1" y="7.099999904632568" width="0.800000011920929" height="0.800000011920929" rx="0.4000000059604645"></rect><rect x="19.1" y="7.099999904632568" width="0.800000011920929" height="0.800000011920929" rx="0.4000000059604645"></rect><rect x="2.1" y="8.100000381469727" width="0.800000011920929" height="0.800000011920929" rx="0.4000000059604645"></rect><rect x="4.1" y="8.100000381469727" width="0.800000011920929" height="0.800000011920929" rx="0.4000000059604645"></rect><rect x="5.1" y="8.100000381469727" width="0.800000011920929" height="0.800000011920929" rx="0.4000000059604645"></rect><rect x="6.1" y="8.100000381469727" width="0.800000011920929" height="0.800000011920929" rx="0.4000000059604645"></rect><rect x="8.1" y="8.100000381469727" width="0.800000011920929" height="0.800000011920929" rx="0.4000000059604645"></rect><rect x="9.1" y="8.100000381469727" width="0.800000011920929" height="0.800000011920929" rx="0.4000000059604645"></rect><rect x="10.1" y="8.100000381469727" width="0.800000011920929" height="0.800000011920929" rx="0.4000000059604645"></rect><rect x="12.1" y="8.100000381469727" width="0.800000011920929" height="0.800000011920929" rx="0.4000000059604645"></rect><rect x="14.1" y="8.100000381469727" width="0.800000011920929" height="0.800000011920929" rx="0.4000000059604645"></rect><rect x="15.1" y="8.100000381469727" width="0.800000011920929" height="0.800000011920929" rx="0.4000000059604645"></rect><rect x="19.1" y="8.100000381469727" width="0.800000011920929" height="0.800000011920929" rx="0.4000000059604645"></rect><rect x="20.1" y="8.100000381469727" width="0.800000011920929" height="0.800000011920929" rx="0.4000000059604645"></rect><rect x="21.1" y="8.100000381469727" width="0.800000011920929" height="0.800000011920929" rx="0.4000000059604645"></rect><rect x="25.1" y="8.100000381469727" width="0.800000011920929" height="0.800000011920929" rx="0.4000000059604645"></rect><rect x="28.1" y="8.100000381469727" width="0.800000011920929" height="0.800000011920929" rx="0.4000000059604645"></rect><rect x="1.1" y="9.100000381469727" width="0.800000011920929" height="0.800000011920929" rx="0.4000000059604645"></rect><rect x="2.1" y="9.100000381469727" width="0.800000011920929" height="0.800000011920929" rx="0.4000000059604645"></rect><rect x="7.1" y="9.100000381469727" width="0.800000011920929" height="0.800000011920929" rx="0.4000000059604645"></rect><rect x="8.1" y="9.100000381469727" width="0.800000011920929" height="0.800000011920929" rx="0.4000000059604645"></rect><rect x="11.1" y="9.100000381469727" width="0.800000011920929" height="0.800000011920929" rx="0.4000000059604645"></rect><rect x="13.1" y="9.100000381469727" width="0.800000011920929" height="0.800000011920929" rx="0.4000000059604645"></rect><rect x="14.1" y="9.100000381469727" width="0.800000011920929" height="0.800000011920929" rx="0.4000000059604645"></rect><rect x="16.1" y="9.100000381469727" width="0.800000011920929" height="0.800000011920929" rx="0.4000000059604645"></rect><rect x="17.1" y="9.100000381469727" width="0.800000011920929" height="0.800000011920929" rx="0.4000000059604645"></rect><rect x="20.1" y="9.100000381469727" width="0.800000011920929" height="0.800000011920929" rx="0.4000000059604645"></rect><rect x="22.1" y="9.100000381469727" width="0.800000011920929" height="0.800000011920929" rx="0.4000000059604645"></rect><rect x="25.1" y="9.100000381469727" width="0.800000011920929" height="0.800000011920929" rx="0.4000000059604645"></rect><rect x="27.1" y="9.100000381469727" width="0.800000011920929" height="0.800000011920929" rx="0.4000000059604645"></rect><rect x="28.1" y="9.100000381469727" width="0.800000011920929" height="0.800000011920929" rx="0.4000000059604645"></rect><rect x="1.1" y="10.10000038146973" width="0.800000011920929" height="0.800000011920929" rx="0.4000000059604645"></rect><rect x="4.1" y="10.10000038146973" width="0.800000011920929" height="0.800000011920929" rx="0.4000000059604645"></rect><rect x="5.1" y="10.10000038146973" width="0.800000011920929" height="0.800000011920929" rx="0.4000000059604645"></rect><rect x="6.1" y="10.10000038146973" width="0.800000011920929" height="0.800000011920929" rx="0.4000000059604645"></rect><rect x="7.1" y="10.10000038146973" width="0.800000011920929" height="0.800000011920929" rx="0.4000000059604645"></rect><rect x="10.1" y="10.10000038146973" width="0.800000011920929" height="0.800000011920929" rx="0.4000000059604645"></rect><rect x="12.1" y="10.10000038146973" width="0.800000011920929" height="0.800000011920929" rx="0.4000000059604645"></rect><rect x="15.1" y="10.10000038146973" width="0.800000011920929" height="0.800000011920929" rx="0.4000000059604645"></rect><rect x="16.1" y="10.10000038146973" width="0.800000011920929" height="0.800000011920929" rx="0.4000000059604645"></rect><rect x="18.1" y="10.10000038146973" width="0.800000011920929" height="0.800000011920929" rx="0.4000000059604645"></rect><rect x="20.1" y="10.10000038146973" width="0.800000011920929" height="0.800000011920929" rx="0.4000000059604645"></rect><rect x="22.1" y="10.10000038146973" width="0.800000011920929" height="0.800000011920929" rx="0.4000000059604645"></rect><rect x="23.1" y="10.10000038146973" width="0.800000011920929" height="0.800000011920929" rx="0.4000000059604645"></rect><rect x="26.1" y="10.10000038146973" width="0.800000011920929" height="0.800000011920929" rx="0.4000000059604645"></rect><rect x="27.1" y="10.10000038146973" width="0.800000011920929" height="0.800000011920929" rx="0.4000000059604645"></rect><rect x="28.1" y="10.10000038146973" width="0.800000011920929" height="0.800000011920929" rx="0.4000000059604645"></rect><rect x="0.1" y="11.10000038146973" width="0.800000011920929" height="0.800000011920929" rx="0.4000000059604645"></rect><rect x="2.1" y="11.10000038146973" width="0.800000011920929" height="0.800000011920929" rx="0.4000000059604645"></rect><rect x="4.1" y="11.10000038146973" width="0.800000011920929" height="0.800000011920929" rx="0.4000000059604645"></rect><rect x="5.1" y="11.10000038146973" width="0.800000011920929" height="0.800000011920929" rx="0.4000000059604645"></rect><rect x="7.1" y="11.10000038146973" width="0.800000011920929" height="0.800000011920929" rx="0.4000000059604645"></rect><rect x="10.1" y="11.10000038146973" width="0.800000011920929" height="0.800000011920929" rx="0.4000000059604645"></rect><rect x="13.1" y="11.10000038146973" width="0.800000011920929" height="0.800000011920929" rx="0.4000000059604645"></rect><rect x="18.1" y="11.10000038146973" width="0.800000011920929" height="0.800000011920929" rx="0.4000000059604645"></rect><rect x="19.1" y="11.10000038146973" width="0.800000011920929" height="0.800000011920929" rx="0.4000000059604645"></rect><rect x="20.1" y="11.10000038146973" width="0.800000011920929" height="0.800000011920929" rx="0.4000000059604645"></rect><rect x="27.1" y="11.10000038146973" width="0.800000011920929" height="0.800000011920929" rx="0.4000000059604645"></rect><rect x="1.1" y="12.10000038146973" width="0.800000011920929" height="0.800000011920929" rx="0.4000000059604645"></rect><rect x="2.1" y="12.10000038146973" width="0.800000011920929" height="0.800000011920929" rx="0.4000000059604645"></rect><rect x="3.1" y="12.10000038146973" width="0.800000011920929" height="0.800000011920929" rx="0.4000000059604645"></rect><rect x="5.1" y="12.10000038146973" width="0.800000011920929" height="0.800000011920929" rx="0.4000000059604645"></rect><rect x="6.1" y="12.10000038146973" width="0.800000011920929" height="0.800000011920929" rx="0.4000000059604645"></rect><rect x="7.1" y="12.10000038146973" width="0.800000011920929" height="0.800000011920929" rx="0.4000000059604645"></rect><rect x="8.1" y="12.10000038146973" width="0.800000011920929" height="0.800000011920929" rx="0.4000000059604645"></rect><rect x="9.1" y="12.10000038146973" width="0.800000011920929" height="0.800000011920929" rx="0.4000000059604645"></rect><rect x="13.1" y="12.10000038146973" width="0.800000011920929" height="0.800000011920929" rx="0.4000000059604645"></rect><rect x="14.1" y="12.10000038146973" width="0.800000011920929" height="0.800000011920929" rx="0.4000000059604645"></rect><rect x="15.1" y="12.10000038146973" width="0.800000011920929" height="0.800000011920929" rx="0.4000000059604645"></rect><rect x="16.1" y="12.10000038146973" width="0.800000011920929" height="0.800000011920929" rx="0.4000000059604645"></rect><rect x="18.1" y="12.10000038146973" width="0.800000011920929" height="0.800000011920929" rx="0.4000000059604645"></rect><rect x="20.1" y="12.10000038146973" width="0.800000011920929" height="0.800000011920929" rx="0.4000000059604645"></rect><rect x="22.1" y="12.10000038146973" width="0.800000011920929" height="0.800000011920929" rx="0.4000000059604645"></rect><rect x="25.1" y="12.10000038146973" width="0.800000011920929" height="0.800000011920929" rx="0.4000000059604645"></rect><rect x="2.1" y="13.10000038146973" width="0.800000011920929" height="0.800000011920929" rx="0.4000000059604645"></rect><rect x="4.1" y="13.10000038146973" width="0.800000011920929" height="0.800000011920929" rx="0.4000000059604645"></rect><rect x="9.1" y="13.10000038146973" width="0.800000011920929" height="0.800000011920929" rx="0.4000000059604645"></rect><rect x="10.1" y="13.10000038146973" width="0.800000011920929" height="0.800000011920929" rx="0.4000000059604645"></rect><rect x="12.1" y="13.10000038146973" width="0.800000011920929" height="0.800000011920929" rx="0.4000000059604645"></rect><rect x="14.1" y="13.10000038146973" width="0.800000011920929" height="0.800000011920929" rx="0.4000000059604645"></rect><rect x="16.1" y="13.10000038146973" width="0.800000011920929" height="0.800000011920929" rx="0.4000000059604645"></rect><rect x="18.1" y="13.10000038146973" width="0.800000011920929" height="0.800000011920929" rx="0.4000000059604645"></rect><rect x="20.1" y="13.10000038146973" width="0.800000011920929" height="0.800000011920929" rx="0.4000000059604645"></rect><rect x="21.1" y="13.10000038146973" width="0.800000011920929" height="0.800000011920929" rx="0.4000000059604645"></rect><rect x="22.1" y="13.10000038146973" width="0.800000011920929" height="0.800000011920929" rx="0.4000000059604645"></rect><rect x="27.1" y="13.10000038146973" width="0.800000011920929" height="0.800000011920929" rx="0.4000000059604645"></rect><rect x="28.1" y="13.10000038146973" width="0.800000011920929" height="0.800000011920929" rx="0.4000000059604645"></rect><rect x="0.1" y="14.10000038146973" width="0.800000011920929" height="0.800000011920929" rx="0.4000000059604645"></rect><rect x="1.1" y="14.10000038146973" width="0.800000011920929" height="0.800000011920929" rx="0.4000000059604645"></rect><rect x="2.1" y="14.10000038146973" width="0.800000011920929" height="0.800000011920929" rx="0.4000000059604645"></rect><rect x="3.1" y="14.10000038146973" width="0.800000011920929" height="0.800000011920929" rx="0.4000000059604645"></rect><rect x="4.1" y="14.10000038146973" width="0.800000011920929" height="0.800000011920929" rx="0.4000000059604645"></rect><rect x="5.1" y="14.10000038146973" width="0.800000011920929" height="0.800000011920929" rx="0.4000000059604645"></rect><rect x="6.1" y="14.10000038146973" width="0.800000011920929" height="0.800000011920929" rx="0.4000000059604645"></rect><rect x="8.1" y="14.10000038146973" width="0.800000011920929" height="0.800000011920929" rx="0.4000000059604645"></rect><rect x="9.1" y="14.10000038146973" width="0.800000011920929" height="0.800000011920929" rx="0.4000000059604645"></rect><rect x="10.1" y="14.10000038146973" width="0.800000011920929" height="0.800000011920929" rx="0.4000000059604645"></rect><rect x="12.1" y="14.10000038146973" width="0.800000011920929" height="0.800000011920929" rx="0.4000000059604645"></rect><rect x="14.1" y="14.10000038146973" width="0.800000011920929" height="0.800000011920929" rx="0.4000000059604645"></rect><rect x="17.1" y="14.10000038146973" width="0.800000011920929" height="0.800000011920929" rx="0.4000000059604645"></rect><rect x="18.1" y="14.10000038146973" width="0.800000011920929" height="0.800000011920929" rx="0.4000000059604645"></rect><rect x="21.1" y="14.10000038146973" width="0.800000011920929" height="0.800000011920929" rx="0.4000000059604645"></rect><rect x="22.1" y="14.10000038146973" width="0.800000011920929" height="0.800000011920929" rx="0.4000000059604645"></rect><rect x="24.1" y="14.10000038146973" width="0.800000011920929" height="0.800000011920929" rx="0.4000000059604645"></rect><rect x="25.1" y="14.10000038146973" width="0.800000011920929" height="0.800000011920929" rx="0.4000000059604645"></rect><rect x="26.1" y="14.10000038146973" width="0.800000011920929" height="0.800000011920929" rx="0.4000000059604645"></rect><rect x="28.1" y="14.10000038146973" width="0.800000011920929" height="0.800000011920929" rx="0.4000000059604645"></rect><rect x="0.1" y="15.10000038146973" width="0.800000011920929" height="0.800000011920929" rx="0.4000000059604645"></rect><rect x="1.1" y="15.10000038146973" width="0.800000011920929" height="0.800000011920929" rx="0.4000000059604645"></rect><rect x="2.1" y="15.10000038146973" width="0.800000011920929" height="0.800000011920929" rx="0.4000000059604645"></rect><rect x="8.1" y="15.10000038146973" width="0.800000011920929" height="0.800000011920929" rx="0.4000000059604645"></rect><rect x="10.1" y="15.10000038146973" width="0.800000011920929" height="0.800000011920929" rx="0.4000000059604645"></rect><rect x="11.1" y="15.10000038146973" width="0.800000011920929" height="0.800000011920929" rx="0.4000000059604645"></rect><rect x="13.1" y="15.10000038146973" width="0.800000011920929" height="0.800000011920929" rx="0.4000000059604645"></rect><rect x="15.1" y="15.10000038146973" width="0.800000011920929" height="0.800000011920929" rx="0.4000000059604645"></rect><rect x="19.1" y="15.10000038146973" width="0.800000011920929" height="0.800000011920929" rx="0.4000000059604645"></rect><rect x="20.1" y="15.10000038146973" width="0.800000011920929" height="0.800000011920929" rx="0.4000000059604645"></rect><rect x="23.1" y="15.10000038146973" width="0.800000011920929" height="0.800000011920929" rx="0.4000000059604645"></rect><rect x="0.1" y="16.10000038146973" width="0.800000011920929" height="0.800000011920929" rx="0.4000000059604645"></rect><rect x="1.1" y="16.10000038146973" width="0.800000011920929" height="0.800000011920929" rx="0.4000000059604645"></rect><rect x="3.1" y="16.10000038146973" width="0.800000011920929" height="0.800000011920929" rx="0.4000000059604645"></rect><rect x="5.1" y="16.10000038146973" width="0.800000011920929" height="0.800000011920929" rx="0.4000000059604645"></rect><rect x="6.1" y="16.10000038146973" width="0.800000011920929" height="0.800000011920929" rx="0.4000000059604645"></rect><rect x="7.1" y="16.10000038146973" width="0.800000011920929" height="0.800000011920929" rx="0.4000000059604645"></rect><rect x="8.1" y="16.10000038146973" width="0.800000011920929" height="0.800000011920929" rx="0.4000000059604645"></rect><rect x="9.1" y="16.10000038146973" width="0.800000011920929" height="0.800000011920929" rx="0.4000000059604645"></rect><rect x="20.1" y="16.10000038146973" width="0.800000011920929" height="0.800000011920929" rx="0.4000000059604645"></rect><rect x="21.1" y="16.10000038146973" width="0.800000011920929" height="0.800000011920929" rx="0.4000000059604645"></rect><rect x="22.1" y="16.10000038146973" width="0.800000011920929" height="0.800000011920929" rx="0.4000000059604645"></rect><rect x="28.1" y="16.10000038146973" width="0.800000011920929" height="0.800000011920929" rx="0.4000000059604645"></rect><rect x="1.1" y="17.10000038146973" width="0.800000011920929" height="0.800000011920929" rx="0.4000000059604645"></rect><rect x="2.1" y="17.10000038146973" width="0.800000011920929" height="0.800000011920929" rx="0.4000000059604645"></rect><rect x="3.1" y="17.10000038146973" width="0.800000011920929" height="0.800000011920929" rx="0.4000000059604645"></rect><rect x="4.1" y="17.10000038146973" width="0.800000011920929" height="0.800000011920929" rx="0.4000000059604645"></rect><rect x="5.1" y="17.10000038146973" width="0.800000011920929" height="0.800000011920929" rx="0.4000000059604645"></rect><rect x="9.1" y="17.10000038146973" width="0.800000011920929" height="0.800000011920929" rx="0.4000000059604645"></rect><rect x="10.1" y="17.10000038146973" width="0.800000011920929" height="0.800000011920929" rx="0.4000000059604645"></rect><rect x="12.1" y="17.10000038146973" width="0.800000011920929" height="0.800000011920929" rx="0.4000000059604645"></rect><rect x="13.1" y="17.10000038146973" width="0.800000011920929" height="0.800000011920929" rx="0.4000000059604645"></rect><rect x="15.1" y="17.10000038146973" width="0.800000011920929" height="0.800000011920929" rx="0.4000000059604645"></rect><rect x="16.1" y="17.10000038146973" width="0.800000011920929" height="0.800000011920929" rx="0.4000000059604645"></rect><rect x="17.1" y="17.10000038146973" width="0.800000011920929" height="0.800000011920929" rx="0.4000000059604645"></rect><rect x="18.1" y="17.10000038146973" width="0.800000011920929" height="0.800000011920929" rx="0.4000000059604645"></rect><rect x="20.1" y="17.10000038146973" width="0.800000011920929" height="0.800000011920929" rx="0.4000000059604645"></rect><rect x="21.1" y="17.10000038146973" width="0.800000011920929" height="0.800000011920929" rx="0.4000000059604645"></rect><rect x="22.1" y="17.10000038146973" width="0.800000011920929" height="0.800000011920929" rx="0.4000000059604645"></rect><rect x="27.1" y="17.10000038146973" width="0.800000011920929" height="0.800000011920929" rx="0.4000000059604645"></rect><rect x="0.1" y="18.10000038146973" width="0.800000011920929" height="0.800000011920929" rx="0.4000000059604645"></rect><rect x="3.1" y="18.10000038146973" width="0.800000011920929" height="0.800000011920929" rx="0.4000000059604645"></rect><rect x="6.1" y="18.10000038146973" width="0.800000011920929" height="0.800000011920929" rx="0.4000000059604645"></rect><rect x="8.1" y="18.10000038146973" width="0.800000011920929" height="0.800000011920929" rx="0.4000000059604645"></rect><rect x="10.1" y="18.10000038146973" width="0.800000011920929" height="0.800000011920929" rx="0.4000000059604645"></rect><rect x="11.1" y="18.10000038146973" width="0.800000011920929" height="0.800000011920929" rx="0.4000000059604645"></rect><rect x="13.1" y="18.10000038146973" width="0.800000011920929" height="0.800000011920929" rx="0.4000000059604645"></rect><rect x="14.1" y="18.10000038146973" width="0.800000011920929" height="0.800000011920929" rx="0.4000000059604645"></rect><rect x="15.1" y="18.10000038146973" width="0.800000011920929" height="0.800000011920929" rx="0.4000000059604645"></rect><rect x="16.1" y="18.10000038146973" width="0.800000011920929" height="0.800000011920929" rx="0.4000000059604645"></rect><rect x="17.1" y="18.10000038146973" width="0.800000011920929" height="0.800000011920929" rx="0.4000000059604645"></rect><rect x="22.1" y="18.10000038146973" width="0.800000011920929" height="0.800000011920929" rx="0.4000000059604645"></rect><rect x="23.1" y="18.10000038146973" width="0.800000011920929" height="0.800000011920929" rx="0.4000000059604645"></rect><rect x="24.1" y="18.10000038146973" width="0.800000011920929" height="0.800000011920929" rx="0.4000000059604645"></rect><rect x="26.1" y="18.10000038146973" width="0.800000011920929" height="0.800000011920929" rx="0.4000000059604645"></rect><rect x="27.1" y="18.10000038146973" width="0.800000011920929" height="0.800000011920929" rx="0.4000000059604645"></rect><rect x="28.1" y="18.10000038146973" width="0.800000011920929" height="0.800000011920929" rx="0.4000000059604645"></rect><rect x="1.1" y="19.10000038146973" width="0.800000011920929" height="0.800000011920929" rx="0.4000000059604645"></rect><rect x="2.1" y="19.10000038146973" width="0.800000011920929" height="0.800000011920929" rx="0.4000000059604645"></rect><rect x="3.1" y="19.10000038146973" width="0.800000011920929" height="0.800000011920929" rx="0.4000000059604645"></rect><rect x="4.1" y="19.10000038146973" width="0.800000011920929" height="0.800000011920929" rx="0.4000000059604645"></rect><rect x="5.1" y="19.10000038146973" width="0.800000011920929" height="0.800000011920929" rx="0.4000000059604645"></rect><rect x="9.1" y="19.10000038146973" width="0.800000011920929" height="0.800000011920929" rx="0.4000000059604645"></rect><rect x="10.1" y="19.10000038146973" width="0.800000011920929" height="0.800000011920929" rx="0.4000000059604645"></rect><rect x="11.1" y="19.10000038146973" width="0.800000011920929" height="0.800000011920929" rx="0.4000000059604645"></rect><rect x="12.1" y="19.10000038146973" width="0.800000011920929" height="0.800000011920929" rx="0.4000000059604645"></rect><rect x="14.1" y="19.10000038146973" width="0.800000011920929" height="0.800000011920929" rx="0.4000000059604645"></rect><rect x="16.1" y="19.10000038146973" width="0.800000011920929" height="0.800000011920929" rx="0.4000000059604645"></rect><rect x="17.1" y="19.10000038146973" width="0.800000011920929" height="0.800000011920929" rx="0.4000000059604645"></rect><rect x="19.1" y="19.10000038146973" width="0.800000011920929" height="0.800000011920929" rx="0.4000000059604645"></rect><rect x="21.1" y="19.10000038146973" width="0.800000011920929" height="0.800000011920929" rx="0.4000000059604645"></rect><rect x="28.1" y="19.10000038146973" width="0.800000011920929" height="0.800000011920929" rx="0.4000000059604645"></rect><rect x="0.1" y="20.10000038146973" width="0.800000011920929" height="0.800000011920929" rx="0.4000000059604645"></rect><rect x="2.1" y="20.10000038146973" width="0.800000011920929" height="0.800000011920929" rx="0.4000000059604645"></rect><rect x="3.1" y="20.10000038146973" width="0.800000011920929" height="0.800000011920929" rx="0.4000000059604645"></rect><rect x="6.1" y="20.10000038146973" width="0.800000011920929" height="0.800000011920929" rx="0.4000000059604645"></rect><rect x="7.1" y="20.10000038146973" width="0.800000011920929" height="0.800000011920929" rx="0.4000000059604645"></rect><rect x="13.1" y="20.10000038146973" width="0.800000011920929" height="0.800000011920929" rx="0.4000000059604645"></rect><rect x="14.1" y="20.10000038146973" width="0.800000011920929" height="0.800000011920929" rx="0.4000000059604645"></rect><rect x="15.1" y="20.10000038146973" width="0.800000011920929" height="0.800000011920929" rx="0.4000000059604645"></rect><rect x="16.1" y="20.10000038146973" width="0.800000011920929" height="0.800000011920929" rx="0.4000000059604645"></rect><rect x="17.1" y="20.10000038146973" width="0.800000011920929" height="0.800000011920929" rx="0.4000000059604645"></rect><rect x="20.1" y="20.10000038146973" width="0.800000011920929" height="0.800000011920929" rx="0.4000000059604645"></rect><rect x="21.1" y="20.10000038146973" width="0.800000011920929" height="0.800000011920929" rx="0.4000000059604645"></rect><rect x="22.1" y="20.10000038146973" width="0.800000011920929" height="0.800000011920929" rx="0.4000000059604645"></rect><rect x="23.1" y="20.10000038146973" width="0.800000011920929" height="0.800000011920929" rx="0.4000000059604645"></rect><rect x="24.1" y="20.10000038146973" width="0.800000011920929" height="0.800000011920929" rx="0.4000000059604645"></rect><rect x="25.1" y="20.10000038146973" width="0.800000011920929" height="0.800000011920929" rx="0.4000000059604645"></rect><rect x="27.1" y="20.10000038146973" width="0.800000011920929" height="0.800000011920929" rx="0.4000000059604645"></rect><rect x="28.1" y="20.10000038146973" width="0.800000011920929" height="0.800000011920929" rx="0.4000000059604645"></rect><rect x="8.1" y="21.10000038146973" width="0.800000011920929" height="0.800000011920929" rx="0.4000000059604645"></rect><rect x="9.1" y="21.10000038146973" width="0.800000011920929" height="0.800000011920929" rx="0.4000000059604645"></rect><rect x="10.1" y="21.10000038146973" width="0.800000011920929" height="0.800000011920929" rx="0.4000000059604645"></rect><rect x="11.1" y="21.10000038146973" width="0.800000011920929" height="0.800000011920929" rx="0.4000000059604645"></rect><rect x="14.1" y="21.10000038146973" width="0.800000011920929" height="0.800000011920929" rx="0.4000000059604645"></rect><rect x="15.1" y="21.10000038146973" width="0.800000011920929" height="0.800000011920929" rx="0.4000000059604645"></rect><rect x="16.1" y="21.10000038146973" width="0.800000011920929" height="0.800000011920929" rx="0.4000000059604645"></rect><rect x="17.1" y="21.10000038146973" width="0.800000011920929" height="0.800000011920929" rx="0.4000000059604645"></rect><rect x="18.1" y="21.10000038146973" width="0.800000011920929" height="0.800000011920929" rx="0.4000000059604645"></rect><rect x="19.1" y="21.10000038146973" width="0.800000011920929" height="0.800000011920929" rx="0.4000000059604645"></rect><rect x="20.1" y="21.10000038146973" width="0.800000011920929" height="0.800000011920929" rx="0.4000000059604645"></rect><rect x="24.1" y="21.10000038146973" width="0.800000011920929" height="0.800000011920929" rx="0.4000000059604645"></rect><rect x="25.1" y="21.10000038146973" width="0.800000011920929" height="0.800000011920929" rx="0.4000000059604645"></rect><rect x="26.1" y="21.10000038146973" width="0.800000011920929" height="0.800000011920929" rx="0.4000000059604645"></rect><rect x="27.1" y="21.10000038146973" width="0.800000011920929" height="0.800000011920929" rx="0.4000000059604645"></rect><rect x="28.1" y="21.10000038146973" width="0.800000011920929" height="0.800000011920929" rx="0.4000000059604645"></rect><rect x="8.1" y="0.1000000014901161" width="0.800000011920929" height="0.800000011920929" rx="0.4000000059604645"></rect><rect x="10.1" y="0.1000000014901161" width="0.800000011920929" height="0.800000011920929" rx="0.4000000059604645"></rect><rect x="12.1" y="0.1000000014901161" width="0.800000011920929" height="0.800000011920929" rx="0.4000000059604645"></rect><rect x="13.1" y="0.1000000014901161" width="0.800000011920929" height="0.800000011920929" rx="0.4000000059604645"></rect><rect x="14.1" y="0.1000000014901161" width="0.800000011920929" height="0.800000011920929" rx="0.4000000059604645"></rect><rect x="15.1" y="0.1000000014901161" width="0.800000011920929" height="0.800000011920929" rx="0.4000000059604645"></rect><rect x="16.1" y="0.1000000014901161" width="0.800000011920929" height="0.800000011920929" rx="0.4000000059604645"></rect><rect x="18.1" y="0.1000000014901161" width="0.800000011920929" height="0.800000011920929" rx="0.4000000059604645"></rect><rect x="20.1" y="0.1000000014901161" width="0.800000011920929" height="0.800000011920929" rx="0.4000000059604645"></rect><rect x="11.1" y="1.100000023841858" width="0.800000011920929" height="0.800000011920929" rx="0.4000000059604645"></rect><rect x="12.1" y="1.100000023841858" width="0.800000011920929" height="0.800000011920929" rx="0.4000000059604645"></rect><rect x="16.1" y="1.100000023841858" width="0.800000011920929" height="0.800000011920929" rx="0.4000000059604645"></rect><rect x="17.1" y="1.100000023841858" width="0.800000011920929" height="0.800000011920929" rx="0.4000000059604645"></rect><rect x="19.1" y="1.100000023841858" width="0.800000011920929" height="0.800000011920929" rx="0.4000000059604645"></rect><rect x="20.1" y="1.100000023841858" width="0.800000011920929" height="0.800000011920929" rx="0.4000000059604645"></rect><rect x="10.1" y="2.099999904632568" width="0.800000011920929" height="0.800000011920929" rx="0.4000000059604645"></rect><rect x="13.1" y="2.099999904632568" width="0.800000011920929" height="0.800000011920929" rx="0.4000000059604645"></rect><rect x="15.1" y="2.099999904632568" width="0.800000011920929" height="0.800000011920929" rx="0.4000000059604645"></rect><rect x="16.1" y="2.099999904632568" width="0.800000011920929" height="0.800000011920929" rx="0.4000000059604645"></rect><rect x="18.1" y="2.099999904632568" width="0.800000011920929" height="0.800000011920929" rx="0.4000000059604645"></rect><rect x="20.1" y="2.099999904632568" width="0.800000011920929" height="0.800000011920929" rx="0.4000000059604645"></rect><rect x="8.1" y="3.099999904632568" width="0.800000011920929" height="0.800000011920929" rx="0.4000000059604645"></rect><rect x="9.1" y="3.099999904632568" width="0.800000011920929" height="0.800000011920929" rx="0.4000000059604645"></rect><rect x="11.1" y="3.099999904632568" width="0.800000011920929" height="0.800000011920929" rx="0.4000000059604645"></rect><rect x="12.1" y="3.099999904632568" width="0.800000011920929" height="0.800000011920929" rx="0.4000000059604645"></rect><rect x="13.1" y="3.099999904632568" width="0.800000011920929" height="0.800000011920929" rx="0.4000000059604645"></rect><rect x="15.1" y="3.099999904632568" width="0.800000011920929" height="0.800000011920929" rx="0.4000000059604645"></rect><rect x="16.1" y="3.099999904632568" width="0.800000011920929" height="0.800000011920929" rx="0.4000000059604645"></rect><rect x="18.1" y="3.099999904632568" width="0.800000011920929" height="0.800000011920929" rx="0.4000000059604645"></rect><rect x="19.1" y="3.099999904632568" width="0.800000011920929" height="0.800000011920929" rx="0.4000000059604645"></rect><rect x="20.1" y="3.099999904632568" width="0.800000011920929" height="0.800000011920929" rx="0.4000000059604645"></rect><rect x="11.1" y="4.099999904632568" width="0.800000011920929" height="0.800000011920929" rx="0.4000000059604645"></rect><rect x="17.1" y="4.099999904632568" width="0.800000011920929" height="0.800000011920929" rx="0.4000000059604645"></rect><rect x="19.1" y="4.099999904632568" width="0.800000011920929" height="0.800000011920929" rx="0.4000000059604645"></rect><rect x="9.1" y="5.099999904632568" width="0.800000011920929" height="0.800000011920929" rx="0.4000000059604645"></rect><rect x="12.1" y="5.099999904632568" width="0.800000011920929" height="0.800000011920929" rx="0.4000000059604645"></rect><rect x="14.1" y="5.099999904632568" width="0.800000011920929" height="0.800000011920929" rx="0.4000000059604645"></rect><rect x="18.1" y="5.099999904632568" width="0.800000011920929" height="0.800000011920929" rx="0.4000000059604645"></rect><rect x="19.1" y="5.099999904632568" width="0.800000011920929" height="0.800000011920929" rx="0.4000000059604645"></rect><rect x="20.1" y="5.099999904632568" width="0.800000011920929" height="0.800000011920929" rx="0.4000000059604645"></rect><rect x="8.1" y="6.099999904632568" width="0.800000011920929" height="0.800000011920929" rx="0.4000000059604645"></rect><rect x="10.1" y="6.099999904632568" width="0.800000011920929" height="0.800000011920929" rx="0.4000000059604645"></rect><rect x="12.1" y="6.099999904632568" width="0.800000011920929" height="0.800000011920929" rx="0.4000000059604645"></rect><rect x="14.1" y="6.099999904632568" width="0.800000011920929" height="0.800000011920929" rx="0.4000000059604645"></rect><rect x="16.1" y="6.099999904632568" width="0.800000011920929" height="0.800000011920929" rx="0.4000000059604645"></rect><rect x="18.1" y="6.099999904632568" width="0.800000011920929" height="0.800000011920929" rx="0.4000000059604645"></rect><rect x="20.1" y="6.099999904632568" width="0.800000011920929" height="0.800000011920929" rx="0.4000000059604645"></rect><rect x="9.1" y="22.10000038146973" width="0.800000011920929" height="0.800000011920929" rx="0.4000000059604645"></rect><rect x="10.1" y="22.10000038146973" width="0.800000011920929" height="0.800000011920929" rx="0.4000000059604645"></rect><rect x="11.1" y="22.10000038146973" width="0.800000011920929" height="0.800000011920929" rx="0.4000000059604645"></rect><rect x="12.1" y="22.10000038146973" width="0.800000011920929" height="0.800000011920929" rx="0.4000000059604645"></rect><rect x="14.1" y="22.10000038146973" width="0.800000011920929" height="0.800000011920929" rx="0.4000000059604645"></rect><rect x="18.1" y="22.10000038146973" width="0.800000011920929" height="0.800000011920929" rx="0.4000000059604645"></rect><rect x="19.1" y="22.10000038146973" width="0.800000011920929" height="0.800000011920929" rx="0.4000000059604645"></rect><rect x="20.1" y="22.10000038146973" width="0.800000011920929" height="0.800000011920929" rx="0.4000000059604645"></rect><rect x="22.1" y="22.10000038146973" width="0.800000011920929" height="0.800000011920929" rx="0.4000000059604645"></rect><rect x="24.1" y="22.10000038146973" width="0.800000011920929" height="0.800000011920929" rx="0.4000000059604645"></rect><rect x="25.1" y="22.10000038146973" width="0.800000011920929" height="0.800000011920929" rx="0.4000000059604645"></rect><rect x="26.1" y="22.10000038146973" width="0.800000011920929" height="0.800000011920929" rx="0.4000000059604645"></rect><rect x="27.1" y="22.10000038146973" width="0.800000011920929" height="0.800000011920929" rx="0.4000000059604645"></rect><rect x="28.1" y="22.10000038146973" width="0.800000011920929" height="0.800000011920929" rx="0.4000000059604645"></rect><rect x="8.1" y="23.10000038146973" width="0.800000011920929" height="0.800000011920929" rx="0.4000000059604645"></rect><rect x="15.1" y="23.10000038146973" width="0.800000011920929" height="0.800000011920929" rx="0.4000000059604645"></rect><rect x="16.1" y="23.10000038146973" width="0.800000011920929" height="0.800000011920929" rx="0.4000000059604645"></rect><rect x="20.1" y="23.10000038146973" width="0.800000011920929" height="0.800000011920929" rx="0.4000000059604645"></rect><rect x="24.1" y="23.10000038146973" width="0.800000011920929" height="0.800000011920929" rx="0.4000000059604645"></rect><rect x="27.1" y="23.10000038146973" width="0.800000011920929" height="0.800000011920929" rx="0.4000000059604645"></rect><rect x="8.1" y="24.10000038146973" width="0.800000011920929" height="0.800000011920929" rx="0.4000000059604645"></rect><rect x="9.1" y="24.10000038146973" width="0.800000011920929" height="0.800000011920929" rx="0.4000000059604645"></rect><rect x="13.1" y="24.10000038146973" width="0.800000011920929" height="0.800000011920929" rx="0.4000000059604645"></rect><rect x="15.1" y="24.10000038146973" width="0.800000011920929" height="0.800000011920929" rx="0.4000000059604645"></rect><rect x="17.1" y="24.10000038146973" width="0.800000011920929" height="0.800000011920929" rx="0.4000000059604645"></rect><rect x="20.1" y="24.10000038146973" width="0.800000011920929" height="0.800000011920929" rx="0.4000000059604645"></rect><rect x="21.1" y="24.10000038146973" width="0.800000011920929" height="0.800000011920929" rx="0.4000000059604645"></rect><rect x="22.1" y="24.10000038146973" width="0.800000011920929" height="0.800000011920929" rx="0.4000000059604645"></rect><rect x="23.1" y="24.10000038146973" width="0.800000011920929" height="0.800000011920929" rx="0.4000000059604645"></rect><rect x="24.1" y="24.10000038146973" width="0.800000011920929" height="0.800000011920929" rx="0.4000000059604645"></rect><rect x="25.1" y="24.10000038146973" width="0.800000011920929" height="0.800000011920929" rx="0.4000000059604645"></rect><rect x="28.1" y="24.10000038146973" width="0.800000011920929" height="0.800000011920929" rx="0.4000000059604645"></rect><rect x="9.1" y="25.10000038146973" width="0.800000011920929" height="0.800000011920929" rx="0.4000000059604645"></rect><rect x="11.1" y="25.10000038146973" width="0.800000011920929" height="0.800000011920929" rx="0.4000000059604645"></rect><rect x="13.1" y="25.10000038146973" width="0.800000011920929" height="0.800000011920929" rx="0.4000000059604645"></rect><rect x="14.1" y="25.10000038146973" width="0.800000011920929" height="0.800000011920929" rx="0.4000000059604645"></rect><rect x="17.1" y="25.10000038146973" width="0.800000011920929" height="0.800000011920929" rx="0.4000000059604645"></rect><rect x="18.1" y="25.10000038146973" width="0.800000011920929" height="0.800000011920929" rx="0.4000000059604645"></rect><rect x="19.1" y="25.10000038146973" width="0.800000011920929" height="0.800000011920929" rx="0.4000000059604645"></rect><rect x="24.1" y="25.10000038146973" width="0.800000011920929" height="0.800000011920929" rx="0.4000000059604645"></rect><rect x="25.1" y="25.10000038146973" width="0.800000011920929" height="0.800000011920929" rx="0.4000000059604645"></rect><rect x="8.1" y="26.10000038146973" width="0.800000011920929" height="0.800000011920929" rx="0.4000000059604645"></rect><rect x="10.1" y="26.10000038146973" width="0.800000011920929" height="0.800000011920929" rx="0.4000000059604645"></rect><rect x="12.1" y="26.10000038146973" width="0.800000011920929" height="0.800000011920929" rx="0.4000000059604645"></rect><rect x="13.1" y="26.10000038146973" width="0.800000011920929" height="0.800000011920929" rx="0.4000000059604645"></rect><rect x="17.1" y="26.10000038146973" width="0.800000011920929" height="0.800000011920929" rx="0.4000000059604645"></rect><rect x="20.1" y="26.10000038146973" width="0.800000011920929" height="0.800000011920929" rx="0.4000000059604645"></rect><rect x="21.1" y="26.10000038146973" width="0.800000011920929" height="0.800000011920929" rx="0.4000000059604645"></rect><rect x="23.1" y="26.10000038146973" width="0.800000011920929" height="0.800000011920929" rx="0.4000000059604645"></rect><rect x="24.1" y="26.10000038146973" width="0.800000011920929" height="0.800000011920929" rx="0.4000000059604645"></rect><rect x="25.1" y="26.10000038146973" width="0.800000011920929" height="0.800000011920929" rx="0.4000000059604645"></rect><rect x="28.1" y="26.10000038146973" width="0.800000011920929" height="0.800000011920929" rx="0.4000000059604645"></rect><rect x="9.1" y="27.10000038146973" width="0.800000011920929" height="0.800000011920929" rx="0.4000000059604645"></rect><rect x="12.1" y="27.10000038146973" width="0.800000011920929" height="0.800000011920929" rx="0.4000000059604645"></rect><rect x="13.1" y="27.10000038146973" width="0.800000011920929" height="0.800000011920929" rx="0.4000000059604645"></rect><rect x="14.1" y="27.10000038146973" width="0.800000011920929" height="0.800000011920929" rx="0.4000000059604645"></rect><rect x="16.1" y="27.10000038146973" width="0.800000011920929" height="0.800000011920929" rx="0.4000000059604645"></rect><rect x="17.1" y="27.10000038146973" width="0.800000011920929" height="0.800000011920929" rx="0.4000000059604645"></rect><rect x="18.1" y="27.10000038146973" width="0.800000011920929" height="0.800000011920929" rx="0.4000000059604645"></rect><rect x="19.1" y="27.10000038146973" width="0.800000011920929" height="0.800000011920929" rx="0.4000000059604645"></rect><rect x="20.1" y="27.10000038146973" width="0.800000011920929" height="0.800000011920929" rx="0.4000000059604645"></rect><rect x="23.1" y="27.10000038146973" width="0.800000011920929" height="0.800000011920929" rx="0.4000000059604645"></rect><rect x="27.1" y="27.10000038146973" width="0.800000011920929" height="0.800000011920929" rx="0.4000000059604645"></rect><rect x="9.1" y="28.10000038146973" width="0.800000011920929" height="0.800000011920929" rx="0.4000000059604645"></rect><rect x="10.1" y="28.10000038146973" width="0.800000011920929" height="0.800000011920929" rx="0.4000000059604645"></rect><rect x="11.1" y="28.10000038146973" width="0.800000011920929" height="0.800000011920929" rx="0.4000000059604645"></rect><rect x="16.1" y="28.10000038146973" width="0.800000011920929" height="0.800000011920929" rx="0.4000000059604645"></rect><rect x="19.1" y="28.10000038146973" width="0.800000011920929" height="0.800000011920929" rx="0.4000000059604645"></rect><rect x="20.1" y="28.10000038146973" width="0.800000011920929" height="0.800000011920929" rx="0.4000000059604645"></rect><rect x="22.1" y="28.10000038146973" width="0.800000011920929" height="0.800000011920929" rx="0.4000000059604645"></rect><rect x="24.1" y="28.10000038146973" width="0.800000011920929" height="0.800000011920929" rx="0.4000000059604645"></rect><rect x="25.1" y="28.10000038146973" width="0.800000011920929" height="0.800000011920929" rx="0.4000000059604645"></rect><rect x="27.1" y="28.10000038146973" width="0.800000011920929" height="0.800000011920929" rx="0.4000000059604645"></rect><rect x="28.1" y="28.10000038146973" width="0.800000011920929" height="0.800000011920929" rx="0.4000000059604645"></rect></g><g class="qrRounded qrAlPatterns"><g class="qrDark" fill="#98971a"><rect x="0" y="0" width="7.0" height="7.0" rx="3.5"></rect><rect x="22" y="0" width="7.0" height="7.0" rx="3.5"></rect><rect x="0" y="22" width="7.0" height="7.0" rx="3.5"></rect></g><g class="qrLight" fill="#1d2021"><rect x="1" y="1" width="5.0" height="5.0" rx="2.5"></rect><rect x="23" y="1" width="5.0" height="5.0" rx="2.5"></rect><rect x="1" y="23" width="5.0" height="5.0" rx="2.5"></rect></g><g class="qrDark" fill="#98971a"><rect x="2" y="2" width="3.0" height="3.0" rx="1.5"></rect><rect x="24" y="2" width="3.0" height="3.0" rx="1.5"></rect><rect x="2" y="24" width="3.0" height="3.0" rx="1.5"></rect></g></g><image x="10" y="10" width="9" height="9" href="data:image/svg+xml,%3c?xml version='1.0' encoding='UTF-8' standalone='no'?%3e%3c!-- Created with Inkscape (http://www.inkscape.org/) --%3e%3csvg id='svg1' sodipodi:docname='ftkalarm.svg' viewBox='0 0 49.203258 51.629362' sodipodi:version='0.32' version='1.0' y='0' x='0' inkscape:version='1.2.2 (b0a8486541%2c 2022-12-01)' width='4.9203258' height='5.1629362' xmlns:inkscape='http://www.inkscape.org/namespaces/inkscape' xmlns:sodipodi='http://sodipodi.sourceforge.net/DTD/sodipodi-0.dtd' xmlns='http://www.w3.org/2000/svg' xmlns:svg='http://www.w3.org/2000/svg' xmlns:rdf='http://www.w3.org/1999/02/22-rdf-syntax-ns%23' xmlns:cc='http://creativecommons.org/ns%23' xmlns:dc='http://purl.org/dc/elements/1.1/'%3e %3cdefs id='defs365' /%3e %3csodipodi:namedview id='base' bordercolor='%23666666' inkscape:pageshadow='2' inkscape:window-width='1016' pagecolor='%23ffffff' inkscape:zoom='4.9119411' inkscape:window-x='0' borderopacity='1.0' inkscape:cx='31.861131' inkscape:cy='17.711939' inkscape:window-y='0' inkscape:window-height='693' inkscape:pageopacity='0.0' inkscape:showpageshadow='2' inkscape:pagecheckerboard='0' inkscape:deskcolor='%23d1d1d1' showgrid='false' inkscape:window-maximized='0' inkscape:current-layer='svg1' /%3e %3cpath id='path795' style='fill:none%3bstroke:%23333333%3bstroke-width:6.25%3bstroke-linecap:round%3bstroke-linejoin:round' d='m 13.228078%2c38.495963 -5.7780001%2c10.008' sodipodi:stroke-cmyk='(0 0 0 0.8)' /%3e %3cpath id='path797' style='fill:none%3bstroke:%23333333%3bstroke-width:6.25%3bstroke-linecap:round%3bstroke-linejoin:round' d='m 35.796628%2c38.496363 5.778%2c10.008' sodipodi:stroke-cmyk='(0 0 0 0.8)' /%3e %3cellipse id='path798' style='fill:%23666666%3bfill-rule:evenodd%3bstroke:%23333333%3bstroke-width:1.87499' transform='rotate(-37.761917)' sodipodi:stroke-cmyk='(0 0 0 0.8)' cx='2.0984313' cy='12.65871' rx='9.415803' ry='6.6165104' /%3e %3cellipse id='path799' style='fill:%23666666%3bfill-rule:evenodd%3bstroke:%23333333%3bstroke-width:1.875' sodipodi:stroke-cmyk='(0 0 0 0.8)' cx='4.7026896' cy='4.395915' rx='2.6720598' ry='2.5448189' /%3e %3cellipse id='path805' style='fill:%23666666%3bfill-rule:evenodd%3bstroke:%23333333%3bstroke-width:1.87499' transform='matrix(-0.79056222%2c-0.61238172%2c-0.61238172%2c0.79056222%2c0%2c0)' sodipodi:stroke-cmyk='(0 0 0 0.8)' cx='-36.799805' cy='-17.472464' rx='9.415803' ry='6.6165104' /%3e %3cellipse id='path806' style='fill:%23666666%3bfill-rule:evenodd%3bstroke:%23333333%3bstroke-width:1.875' transform='scale(-1%2c1)' sodipodi:stroke-cmyk='(0 0 0 0.8)' cx='-44.500668' cy='4.395915' rx='2.6720598' ry='2.5448189' /%3e %3ccircle id='path741' style='fill:%23b3b3b3%3bfill-rule:evenodd%3bstroke:%23333333%3bstroke-width:2.60144' sodipodi:stroke-cmyk='(0 0 0 0.8)' cx='24.791548' cy='27.143543' r='21.496031' /%3e %3cpath id='path743' sodipodi:nodetypes='cc' style='fill:none%3bstroke:%234c4c4c%3bstroke-width:5%3bstroke-linecap:round%3bstroke-linejoin:round' d='m 24.702628%2c26.919263 v -15.46' sodipodi:stroke-cmyk='(0.0000000 0.0000000 0.0000000 0.69999999)' /%3e %3cpath id='path744' style='fill:none%3bstroke:%234c4c4c%3bstroke-width:5%3bstroke-linecap:round%3bstroke-linejoin:round' d='m 25.360628%2c27.218263 10.626%2c6.135' sodipodi:stroke-cmyk='(0.0000000 0.0000000 0.0000000 0.69999999)' /%3e %3ccircle id='path742' style='fill:%23333333%3bfill-rule:evenodd%3bstroke:%23333333%3bstroke-width:2.60144%3bstroke-linecap:round%3bstroke-linejoin:round' sodipodi:stroke-cmyk='(0 0 0 0.8)' cx='24.79146' cy='27.143412' r='1.9473704' /%3e %3cmetadata id='metadata362'%3e %3crdf:RDF%3e %3ccc:Work%3e %3cdc:format%3eimage/svg+xml%3c/dc:format%3e %3cdc:type rdf:resource='http://purl.org/dc/dcmitype/StillImage' /%3e %3ccc:license rdf:resource='http://creativecommons.org/publicdomain/zero/1.0/' /%3e %3cdc:publisher%3e %3ccc:Agent rdf:about='http://openclipart.org/'%3e %3cdc:title%3eOpenclipart%3c/dc:title%3e %3c/cc:Agent%3e %3c/dc:publisher%3e %3cdc:title%3eftkalarm%3c/dc:title%3e %3cdc:date%3e2011-01-31T02:01:40%3c/dc:date%3e %3cdc:description%3eOriginally uploaded by Danny Allen for OCAL 0.18 this icon is part of the flat theme%3c/dc:description%3e %3cdc:source%3ehttps://openclipart.org/detail/113005/ftkalarm-by-anonymous%3c/dc:source%3e %3cdc:creator%3e %3ccc:Agent%3e %3cdc:title%3eAnonymous%3c/dc:title%3e %3c/cc:Agent%3e %3c/dc:creator%3e %3cdc:subject%3e %3crdf:Bag%3e %3crdf:li%3eflat%3c/rdf:li%3e %3crdf:li%3eicon%3c/rdf:li%3e %3crdf:li%3etheme%3c/rdf:li%3e %3c/rdf:Bag%3e %3c/dc:subject%3e %3c/cc:Work%3e %3ccc:License rdf:about='http://creativecommons.org/publicdomain/zero/1.0/'%3e %3ccc:permits rdf:resource='http://creativecommons.org/ns%23Reproduction' /%3e %3ccc:permits rdf:resource='http://creativecommons.org/ns%23Distribution' /%3e %3ccc:permits rdf:resource='http://creativecommons.org/ns%23DerivativeWorks' /%3e %3c/cc:License%3e %3c/rdf:RDF%3e %3c/metadata%3e%3c/svg%3e"/></svg>